<?xml version="1.0" standalone="no"?>
<!DOCTYPE svg PUBLIC "-//W3C//DTD SVG 20010904//EN"
 "http://www.w3.org/TR/2001/REC-SVG-20010904/DTD/svg10.dtd">
<svg version="1.0"
    xmlns="http://www.w3.org/2000/svg" width="3755.000000pt" height="1094.000000pt" viewBox="0 0 3755.000000 1094.000000" preserveAspectRatio="xMidYMid meet">

    <g transform="translate(0.000000,1094.000000) scale(0.100000,-0.100000)" fill="#fff" stroke="none">
        <path d="M2818 10490 c-483 -41 -888 -210 -1189 -497 -43 -42 -79 -79 -79 -83
0 -5 110 -45 244 -90 245 -81 298 -108 259 -128 -10 -5 -65 -17 -123 -27 -412
-67 -695 -290 -908 -713 -76 -150 -129 -279 -119 -288 3 -4 45 19 93 50 126
81 308 171 426 210 154 52 319 82 303 56 -3 -5 -57 -43 -120 -85 -365 -241
-557 -563 -597 -999 -25 -277 28 -567 159 -876 46 -109 58 -128 70 -117 3 4
12 58 20 120 19 156 38 228 88 332 70 144 154 231 280 292 200 95 415 79 670
-49 110 -55 187 -112 276 -204 124 -129 205 -266 273 -463 41 -119 61 -256 33
-233 -9 8 -87 125 -174 260 -155 242 -210 311 -277 347 -45 24 -61 16 -75 -42
-51 -206 -247 -887 -332 -1155 -200 -632 -260 -908 -277 -1285 -28 -580 68
-1017 337 -1538 378 -735 939 -1321 1693 -1771 445 -265 842 -413 1308 -488
342 -55 225 -53 2293 -47 1267 3 1308 4 1330 22 l22 19 -36 33 c-59 52 -278
202 -359 246 -128 69 -278 89 -405 55 -153 -41 -246 -35 -360 21 -38 18 -88
52 -110 74 l-39 41 457 0 c327 0 457 3 457 11 0 19 -120 130 -189 173 -145 93
-225 111 -444 101 -132 -5 -165 -4 -206 10 -27 9 -55 23 -62 31 -21 26 6 128
77 289 79 179 135 342 165 485 19 87 23 137 23 295 0 166 -3 202 -23 285 -86
351 -262 567 -703 864 -116 78 -140 101 -95 92 12 -3 89 -11 171 -17 235 -19
424 -2 654 57 224 57 338 121 431 243 28 36 80 104 116 151 36 47 89 132 117
190 211 439 261 520 438 703 58 60 155 147 215 192 179 134 275 254 353 442
58 141 48 227 -34 290 -30 22 -49 28 -103 31 -56 3 -79 -1 -146 -27 -113 -43
-236 -122 -328 -210 -44 -42 -179 -191 -300 -331 -262 -303 -346 -388 -412
-420 -139 -67 -258 3 -357 210 -90 188 -8 410 189 509 23 11 102 32 175 46
383 73 493 113 693 249 108 73 290 252 327 321 34 65 50 151 38 213 -24 129
-75 193 -302 377 -124 101 -254 220 -403 370 -121 122 -249 241 -284 265 -137
92 -286 147 -479 175 -161 24 -221 61 -304 187 -125 189 -281 275 -368 202
-49 -42 -73 -100 -105 -254 -27 -135 -18 -125 -73 -85 -71 50 -171 95 -215 95
-29 0 -46 -7 -68 -29 -33 -33 -34 -46 -18 -156 21 -140 -11 -287 -111 -515
-44 -99 -90 -260 -90 -314 0 -97 -84 -289 -174 -398 -31 -37 -89 -95 -129
-127 -68 -57 -143 -108 -642 -433 -540 -352 -854 -647 -1127 -1058 -218 -327
-360 -707 -414 -1110 -36 -261 -20 -625 37 -885 126 -569 396 -1024 978 -1650
116 -125 137 -155 107 -155 -19 0 -45 22 -301 249 -361 322 -539 508 -714 744
-253 342 -416 734 -466 1120 -17 137 -20 414 -4 555 33 312 148 666 310 958
165 297 308 482 794 1029 142 160 305 349 363 420 218 272 402 586 487 835 83
241 115 439 115 708 -1 360 -68 655 -224 977 -387 801 -1073 1295 -1957 1409
-151 20 -379 27 -511 16z"/>
        <path d="M35515 6894 c-144 -31 -300 -132 -389 -253 -88 -120 -129 -244 -129
-396 0 -118 19 -199 71 -305 49 -101 177 -230 279 -283 198 -102 429 -102 626
0 87 45 218 171 265 255 284 501 -157 1101 -723 982z m319 -105 c187 -63 332
-217 381 -405 19 -75 19 -203 0 -279 -71 -270 -328 -455 -601 -432 -241 21
-447 196 -509 432 -19 76 -19 204 0 279 56 214 242 387 458 426 73 13 198 3
271 -21z"/>
        <path d="M35443 6593 c-10 -4 -13 -78 -13 -324 l0 -319 75 0 74 0 3 128 3 127
46 -1 c76 0 93 -19 131 -141 l34 -108 83 -3 c74 -2 83 -1 77 13 -3 9 -17 53
-30 98 -34 118 -40 130 -78 163 l-34 29 44 28 c90 57 106 170 35 248 -52 57
-103 69 -287 68 -83 0 -157 -3 -163 -6z m282 -107 c52 -22 68 -67 44 -120 -16
-35 -67 -56 -133 -56 l-56 0 0 88 c0 49 3 92 7 95 12 12 103 7 138 -7z"/>
        <path d="M23706 6214 c-126 -30 -245 -123 -295 -228 -90 -193 -26 -424 150
-536 79 -51 159 -72 274 -73 213 -2 361 85 442 259 25 53 28 70 28 164 0 97
-2 110 -32 172 -59 125 -165 210 -304 243 -79 18 -185 18 -263 -1z"/>
        <path d="M16240 4225 l0 -1725 395 0 395 0 0 1725 0 1725 -395 0 -395 0 0
-1725z"/>
        <path d="M27730 4225 l0 -1725 395 0 395 0 2 545 3 545 395 -545 395 -544 494
-1 495 0 -26 28 c-14 15 -254 299 -533 632 -280 333 -514 612 -522 621 -12 14
49 92 522 662 294 356 535 649 535 652 0 3 -219 4 -487 3 l-486 -3 -391 -525
-391 -525 -3 953 -2 952 -395 0 -395 0 0 -1725z"/>
        <path d="M11274 5809 c-564 -40 -952 -332 -1029 -774 -17 -101 -19 -261 -5
-353 48 -292 216 -496 532 -647 124 -58 210 -90 518 -189 338 -109 476 -190
536 -311 23 -48 26 -64 23 -133 -9 -187 -143 -292 -374 -292 -152 0 -266 48
-329 138 -33 48 -75 148 -76 179 0 56 24 53 -432 53 l-421 0 7 -66 c51 -497
399 -826 972 -920 149 -25 440 -25 579 0 117 21 277 72 367 117 229 115 413
319 486 542 39 117 52 197 52 322 0 241 -59 399 -208 556 -84 89 -179 158
-310 223 -125 63 -205 94 -492 191 -279 95 -376 136 -464 199 -96 68 -136 141
-136 247 0 118 60 213 165 261 43 20 66 23 160 23 91 -1 120 -5 167 -23 111
-45 200 -153 214 -264 l7 -48 428 0 429 0 0 23 c0 13 -7 66 -16 118 -76 446
-408 737 -927 813 -133 19 -285 25 -423 15z"/>
        <path d="M20470 5455 l0 -315 430 0 430 0 0 -1320 0 -1320 400 0 400 0 0 1320
0 1320 430 0 430 0 0 315 0 315 -1260 0 -1260 0 0 -315z"/>
        <path d="M33690 5415 l0 -315 -155 0 -155 0 0 -330 0 -330 155 0 155 0 0 -539
c0 -296 5 -585 10 -642 40 -396 223 -627 565 -714 119 -30 298 -45 553 -45
l192 0 0 335 0 335 -132 0 c-254 1 -326 21 -368 106 l-25 49 -3 558 -3 557
266 0 265 0 0 330 0 330 -265 0 -265 0 0 315 0 315 -395 0 -395 0 0 -315z"/>
        <path d="M9238 5616 c-227 -78 -429 -238 -563 -446 -59 -91 -106 -186 -155
-320 -105 -281 -213 -433 -370 -521 -22 -13 -40 -26 -40 -30 0 -11 30 -39 41
-39 10 0 131 67 224 124 69 42 156 126 227 219 189 247 381 405 662 542 118
57 141 72 198 134 68 71 138 193 138 238 0 39 -31 94 -64 114 -53 33 -179 26
-298 -15z"/>
        <path d="M14277 5129 c-687 -57 -1159 -531 -1206 -1212 -51 -724 342 -1274
1014 -1419 117 -25 376 -35 511 -19 314 37 593 168 799 376 173 174 281 378
337 638 19 87 22 133 22 307 0 223 -14 317 -70 486 -92 275 -281 508 -538 662
-229 138 -562 207 -869 181z m261 -694 c232 -55 381 -251 411 -539 17 -166 -6
-307 -71 -444 -93 -197 -298 -316 -513 -298 -232 18 -399 167 -467 413 -32
115 -32 356 0 466 32 112 76 192 145 264 124 129 311 181 495 138z"/>
        <path d="M25880 5130 c-410 -32 -746 -220 -957 -537 -101 -153 -168 -336 -199
-545 -23 -156 -15 -450 16 -593 115 -533 494 -890 1033 -969 121 -18 332 -21
443 -5 484 67 847 366 997 820 14 41 28 89 32 107 l7 32 -421 0 -421 0 -35
-71 c-65 -128 -163 -198 -309 -221 -236 -36 -438 102 -514 352 -31 100 -46
248 -38 370 22 371 201 590 481 590 176 0 320 -91 392 -247 l24 -53 420 0
c364 0 419 2 419 15 0 27 -61 208 -95 282 -155 338 -454 570 -835 648 -67 14
-291 37 -330 33 -8 0 -58 -4 -110 -8z"/>
        <path d="M31673 5129 c-463 -35 -830 -266 -1025 -645 -226 -436 -200 -1079 59
-1466 201 -301 503 -484 887 -537 109 -15 324 -14 436 4 403 61 734 288 908
623 42 79 92 211 92 239 0 11 -78 13 -419 13 l-419 0 -25 -43 c-97 -165 -301
-241 -517 -191 -196 44 -329 205 -365 442 l-7 42 901 0 901 0 7 28 c11 45 8
352 -6 437 -38 245 -118 435 -261 616 -246 312 -673 475 -1147 438z m262 -644
c139 -36 256 -125 308 -236 26 -55 51 -174 41 -190 -3 -5 -228 -9 -500 -9
l-494 0 0 23 c1 36 46 154 80 206 63 99 166 174 283 206 70 18 209 19 282 0z"/>
        <path d="M17364 5092 c3 -5 241 -570 530 -1255 l525 -1246 -291 -643 c-159
-354 -292 -651 -295 -660 -5 -17 20 -18 420 -18 331 0 426 3 430 13 3 6 366
860 807 1897 441 1037 805 1893 807 1903 5 16 -18 17 -423 15 l-428 -3 -296
-807 c-162 -444 -298 -804 -302 -800 -5 5 -494 1317 -590 1585 l-10 27 -445 0
c-244 0 -442 -4 -439 -8z"/>
        <path d="M23440 3800 l0 -1300 400 0 400 0 0 1300 0 1300 -400 0 -400 0 0
-1300z"/>
    </g>
</svg>
